<svg xmlns="http://www.w3.org/2000/svg" width="44" height="44" viewBox="0 0 44 44" fill="none">
  <rect width="44" height="44" rx="8" fill="#0D0D10"/>
  <circle cx="22" cy="22" r="19.5" stroke="#FF3030" stroke-width="0.5" stroke-opacity="0.3"/>
  <path d="M22 6C15.4 6 10 11.4 10 18C10 22.5 12.4 26.4 16 28.6V34C16 34.6 16.4 35 17 35H27C27.6 35 28 34.6 28 34V28.6C31.6 26.4 34 22.5 34 18C34 11.4 28.6 6 22 6Z" fill="rgba(255,48,48,0.06)" stroke="rgba(255,48,48,0.5)" stroke-width="1.2"/>
  <circle cx="22" cy="13" r="1.8" fill="#FF3030"/>
  <circle cx="17" cy="17" r="1.4" fill="#ECECEC"/>
  <circle cx="27" cy="17" r="1.4" fill="#ECECEC"/>
  <circle cx="19" cy="22" r="1.4" fill="#FF3030"/>
  <circle cx="25" cy="22" r="1.4" fill="#FF3030"/>
  <circle cx="22" cy="27" r="1.8" fill="#ECECEC"/>
  <line x1="22" y1="13" x2="17" y2="17" stroke="#FF3030" stroke-width="0.8" stroke-opacity="0.7"/>
  <line x1="22" y1="13" x2="27" y2="17" stroke="#FF3030" stroke-width="0.8" stroke-opacity="0.7"/>
  <line x1="17" y1="17" x2="19" y2="22" stroke="#ECECEC" stroke-width="0.8" stroke-opacity="0.5"/>
  <line x1="27" y1="17" x2="25" y2="22" stroke="#ECECEC" stroke-width="0.8" stroke-opacity="0.5"/>
  <line x1="19" y1="22" x2="22" y2="27" stroke="#FF3030" stroke-width="0.8" stroke-opacity="0.7"/>
  <line x1="25" y1="22" x2="22" y2="27" stroke="#FF3030" stroke-width="0.8" stroke-opacity="0.7"/>
</svg>
